Coordinates
version=1
nRows=34
nColumns=38
inDegrees=no

Units are S.I. units (second, meters, Newtons, ...)
If the header above contains a line with 'inDegrees', this indicates whether rotational values are in degrees (yes) or radians (no).

endheader
time	pelvis_tilt	pelvis_list	pelvis_rotation	pelvis_tx	pelvis_ty	pelvis_tz	hip_flexion_r	hip_adduction_r	hip_rotation_r	knee_angle_r	ankle_angle_r	subtalar_angle_r	mtp_angle_r	hip_flexion_l	hip_adduction_l	hip_rotation_l	knee_angle_l	ankle_angle_l	subtalar_angle_l	mtp_angle_l	lumbar_extension	lumbar_bending	lumbar_rotation	arm_flex_r	arm_add_r	arm_rot_r	elbow_flex_r	pro_sup_r	wrist_flex_r	wrist_dev_r	arm_flex_l	arm_add_l	arm_rot_l	elbow_flex_l	pro_sup_l	wrist_flex_l	wrist_dev_l
0	0.982857	1.50171	0.629451	0.63942	0.25986	1.0128	0.555759	0.0550049	-0.0337928	0.411932	-0.170004	0	0	-0.0239621	-0.0726061	-0.281259	0.534411	-0.035142	0	0	-0.089593	0.0870306	0.0448889	-0.317456	-0.275573	0.121921	0.556542	1.24058	0	0	0.592489	-0.562314	1.2555	0.59107	1.08733	0	0
0.01	0.892408	1.49696	0.725869	0.639929	0.270196	1.01111	0.543908	0.0560012	-0.0270933	0.314419	-0.194133	0	0	-0.0244466	-0.0734336	-0.273869	0.537128	-0.0328029	0	0	-0.0810966	0.0873639	0.0345568	-0.311954	-0.278663	0.139787	0.553668	1.21916	0	0	0.590284	-0.567455	1.22712	0.600579	1.10772	0	0
0.02	0.828357	1.4921	0.795708	0.640468	0.28141	1.00946	0.526989	0.0574108	-0.0158953	0.215619	-0.209571	0	0	-0.0278736	-0.0759169	-0.27075	0.538737	-0.0317599	0	0	-0.0724949	0.0882707	0.0211606	-0.303784	-0.285614	0.174432	0.548289	1.18409	0	0	0.579597	-0.576151	1.18617	0.614253	1.13698	0	0
0.03	0.814979	1.49011	0.81488	0.641001	0.292831	1.00799	0.502183	0.0585498	0.00311641	0.116757	-0.245562	0	0	-0.0368806	-0.0797964	-0.270202	0.540249	-0.0316044	0	0	-0.0680028	0.0902441	0.0236274	-0.311319	-0.275393	0.138226	0.54695	1.22125	0	0	0.597448	-0.567945	1.21706	0.607443	1.11671	0	0
0.04	0.816905	1.48892	0.819126	0.641472	0.3045	1.0066	0.474367	0.0581271	0.0297405	0.0227338	-0.293225	0	0	-0.047393	-0.0844309	-0.269339	0.541789	-0.032614	0	0	-0.065571	0.0929257	0.022142	-0.315611	-0.269321	0.115733	0.545793	1.24609	0	0	0.606605	-0.56369	1.22861	0.606033	1.11139	0	0
0.05	0.789269	1.48648	0.851869	0.641912	0.316229	1.00491	0.468236	0.0561713	0.0312158	0	-0.299307	0	0	-0.0543738	-0.087898	-0.26795	0.544535	-0.0341789	0	0	-0.0608188	0.0947128	0.0198315	-0.317832	-0.268549	0.112142	0.544551	1.24915	0	0	0.610585	-0.561829	1.23034	0.607952	1.11218	0	0
0.06	0.786846	1.48492	0.859829	0.642221	0.328088	1.00353	0.463796	0.0552351	0.0308552	0	-0.304144	0	0	-0.0628374	-0.0927197	-0.266038	0.548199	-0.0367917	0	0	-0.0584665	0.097969	0.0170279	-0.319346	-0.268469	0.108913	0.542797	1.2519	0	0	0.613348	-0.5596	1.23134	0.60933	1.1147	0	0
0.07	0.771268	1.48086	0.883159	0.642276	0.340246	1.00226	0.464838	0.0550745	0.0259171	0	-0.258585	0	0	-0.0671	-0.0981909	-0.259545	0.552978	-0.0407549	0	0	-0.0567242	0.10188	-0.0244966	-0.286354	-0.302465	0.242817	0.533792	1.12405	0	0	0.548202	-0.597881	1.08069	0.662651	1.2149	0	0
0.08	0.757815	1.47782	0.904179	0.642305	0.352395	1.00092	0.46728	0.0552315	0.0243438	0	-0.229429	0	0	-0.071653	-0.102901	-0.252207	0.558591	-0.0366118	0	0	-0.052668	0.10603	-0.0433702	-0.278515	-0.308819	0.261704	0.531336	1.1037	0	0	0.526632	-0.610087	1.04585	0.681891	1.21808	0	0
0.09	0.782835	1.4785	0.885329	0.642383	0.364625	1	0.464811	0.0573782	0.0255888	0	-0.249021	0	0	-0.0815492	-0.109536	-0.253095	0.564569	-0.0479612	0	0	-0.0542726	0.110593	-0.0360402	-0.285685	-0.307129	0.249774	0.528945	1.1174	0	0	0.541162	-0.597545	1.07055	0.671315	1.2222	0	0
0.1	0.806609	1.47864	0.868736	0.642319	0.377054	0.999047	0.463268	0.059833	0.0266447	0	-0.265398	0	0	-0.0899588	-0.116083	-0.250571	0.572019	-0.058519	0	0	-0.0551198	0.115841	-0.0320562	-0.292739	-0.306055	0.236492	0.527979	1.12852	0	0	0.549967	-0.587563	1.0887	0.664513	1.2238	0	0
0.11	0.840032	1.47896	0.84359	0.642053	0.389695	0.998112	0.45953	0.062591	0.0283457	0	-0.29754	0	0	-0.0979423	-0.123341	-0.246957	0.58157	-0.0763969	0	0	-0.0565021	0.122536	-0.0245255	-0.306273	-0.301962	0.2037	0.531584	1.15329	0	0	0.563513	-0.572974	1.11874	0.653104	1.22099	0	0
0.12	0.845303	1.47766	0.846627	0.641666	0.402551	0.99684	0.470551	0.0642398	0.0106007	0.0522665	-0.310358	0	0	-0.102176	-0.129049	-0.241135	0.591609	-0.090736	0	0	-0.0543457	0.128936	-0.0206999	-0.319799	-0.297871	0.168261	0.536724	1.18176	0	0	0.569151	-0.562494	1.13911	0.64763	1.2162	0	0
0.13	0.816191	1.47234	0.884881	0.641138	0.415697	0.995159	0.491862	0.0637842	-0.0169726	0.119515	-0.274164	0	0	-0.0993126	-0.134614	-0.231831	0.604461	-0.102173	0	0	-0.0465625	0.135559	-0.0316468	-0.32098	-0.306962	0.186444	0.538121	1.16098	0	0	0.547628	-0.566295	1.10571	0.661235	1.24148	0	0
0.14	0.851538	1.46858	0.858744	0.640527	0.428864	0.994301	0.494513	0.065547	-0.0298455	0.145077	-0.307858	0	0	-0.10188	-0.144224	-0.222999	0.617197	-0.113428	0	0	-0.0447963	0.14759	-0.0314215	-0.331084	-0.30671	0.162183	0.541196	1.18239	0	0	0.543972	-0.55727	1.11089	0.658916	1.24144	0	0
0.15	0.896892	1.46267	0.821369	0.639845	0.441978	0.993936	0.495913	0.0684159	-0.041266	0.157808	-0.334475	0	0	-0.102288	-0.155338	-0.212585	0.632291	-0.125556	0	0	-0.0435353	0.16324	-0.0318902	-0.33826	-0.309744	0.146475	0.543584	1.19593	0	0	0.534311	-0.548225	1.10441	0.657571	1.24588	0	0
0.16	0.938645	1.45567	0.785808	0.63923	0.455108	0.993953	0.498143	0.0727678	-0.0521763	0.173373	-0.361668	0	0	-0.100115	-0.166324	-0.201267	0.651011	-0.140364	0	0	-0.0424512	0.180276	-0.03068	-0.345599	-0.314122	0.132282	0.547798	1.20681	0	0	0.521041	-0.538064	1.09023	0.655781	1.2543	0	0
0.17	0.9389	1.44685	0.789099	0.638864	0.468399	0.993777	0.513198	0.0756241	-0.0733196	0.215517	-0.388477	0	0	-0.0907662	-0.174309	-0.189266	0.674648	-0.16243	0	0	-0.0388087	0.196483	-0.038587	-0.350059	-0.320015	0.114068	0.558213	1.23	0	0	0.476976	-0.534999	1.00054	0.668493	1.32323	0	0
0.18	0.942458	1.44117	0.786447	0.638833	0.481716	0.993776	0.528597	0.0772207	-0.0959096	0.268452	-0.373503	0	0	-0.0819931	-0.179767	-0.179123	0.703061	-0.18103	0	0	-0.0357389	0.208441	-0.0328977	-0.356902	-0.329622	0.123348	0.564867	1.20555	0	0	0.458592	-0.526876	0.97877	0.670563	1.33644	0	0
0.19	0.952304	1.43807	0.775397	0.639075	0.494968	0.994076	0.539872	0.0788311	-0.113508	0.316053	-0.353921	0	0	-0.0732494	-0.183418	-0.170162	0.735606	-0.201411	0	0	-0.0345619	0.217389	-0.0234396	-0.361612	-0.338744	0.14044	0.567127	1.17231	0	0	0.443948	-0.519308	0.967546	0.672031	1.34278	0	0
0.2	0.953976	1.43633	0.771142	0.639558	0.508177	0.994573	0.550377	0.0800922	-0.126691	0.362749	-0.321186	0	0	-0.0615875	-0.185074	-0.161891	0.771671	-0.229172	0	0	-0.034834	0.225628	-0.0175633	-0.369489	-0.33231	0.0961623	0.572048	1.22598	0	0	0.41851	-0.513659	0.931054	0.67721	1.37108	0	0
0.21	0.96002	1.43632	0.762236	0.640265	0.52127	0.995349	0.555253	0.0825247	-0.134275	0.401879	-0.300431	0	0	-0.0485324	-0.185602	-0.152877	0.810421	-0.258468	0	0	-0.0361781	0.230957	-0.00914724	-0.3723	-0.336155	0.100699	0.573401	1.2125	0	0	0.401153	-0.510074	0.919727	0.681504	1.37474	0	0
0.22	0.962295	1.4369	0.757363	0.641189	0.534181	0.996183	0.557231	0.0851039	-0.14059	0.435229	-0.27721	0	0	-0.0322653	-0.185236	-0.142269	0.85208	-0.290212	0	0	-0.0374598	0.234399	-0.00222584	-0.373724	-0.339493	0.107603	0.574933	1.19676	0	0	0.383885	-0.509215	0.912423	0.687277	1.37138	0	0
0.23	0.96781	1.43767	0.749982	0.64224	0.546831	0.997128	0.553609	0.0887689	-0.14499	0.455583	-0.261789	0	0	-0.0136971	-0.184654	-0.129238	0.896284	-0.317794	0	0	-0.0392421	0.237281	0.00357205	-0.374076	-0.342134	0.115012	0.576462	1.18111	0	0	0.367694	-0.509106	0.908533	0.692227	1.36424	0	0
0.24	0.978288	1.43857	0.738881	0.643235	0.559215	0.998182	0.545301	0.0926958	-0.149502	0.466356	-0.25234	0	0	0.00694097	-0.183962	-0.113589	0.943358	-0.338865	0	0	-0.041824	0.240198	0.0084801	-0.373501	-0.345004	0.12493	0.577846	1.16239	0	0	0.352914	-0.508522	0.907096	0.695632	1.35535	0	0
0.25	0.994206	1.44012	0.723425	0.644107	0.571352	0.999385	0.533312	0.0959946	-0.154912	0.471701	-0.247228	0	0	0.0287121	-0.182522	-0.0957309	0.992246	-0.35367	0	0	-0.0460989	0.243317	0.0119399	-0.373615	-0.343027	0.116152	0.579871	1.17139	0	0	0.337139	-0.506834	0.901248	0.697663	1.35211	0	0
0.26	1.01054	1.44258	0.708146	0.644886	0.583289	1.0007	0.519861	0.0978611	-0.161142	0.476449	-0.237281	0	0	0.0513601	-0.179066	-0.0753387	1.04132	-0.371305	0	0	-0.0510361	0.245488	0.0137306	-0.372406	-0.341588	0.10962	0.58202	1.17839	0	0	0.321181	-0.505502	0.896404	0.699186	1.34523	0	0
0.27	1.02446	1.44627	0.695028	0.645648	0.59504	1.00217	0.504729	0.0988302	-0.164556	0.479404	-0.225076	0	0	0.0743505	-0.173936	-0.0560776	1.08903	-0.392926	0	0	-0.0563589	0.246118	0.0153727	-0.369964	-0.340264	0.10526	0.583192	1.18369	0	0	0.306485	-0.503718	0.894471	0.698349	1.33794	0	0
0.28	1.03311	1.45099	0.686196	0.646467	0.606591	1.00379	0.487974	0.0999036	-0.162787	0.478793	-0.212678	0	0	0.0980236	-0.167393	-0.0391503	1.13448	-0.416796	0	0	-0.0618244	0.24515	0.0183804	-0.366747	-0.338729	0.102371	0.583037	1.1871	0	0	0.293634	-0.500666	0.895542	0.694188	1.33124	0	0
0.29	1.03987	1.4566	0.678111	0.647402	0.617996	1.00553	0.470182	0.101304	-0.157157	0.47662	-0.200331	0	0	0.121516	-0.160252	-0.0248361	1.17644	-0.438929	0	0	-0.0677501	0.242933	0.0233847	-0.363284	-0.337048	0.100537	0.582045	1.18875	0	0	0.282795	-0.49621	0.899417	0.686892	1.32494	0	0
0.3	1.04971	1.46302	0.666098	0.648431	0.629238	1.00738	0.451729	0.10281	-0.149555	0.475467	-0.170227	0	0	0.144029	-0.15306	-0.0130316	1.21407	-0.461421	0	0	-0.0719005	0.238844	0.0374183	-0.359855	-0.345837	0.143957	0.578196	1.11564	0	0	0.289695	-0.489225	0.946661	0.669824	1.28784	0	0
0.31	1.06553	1.46939	0.647595	0.649472	0.640367	1.00932	0.432276	0.104872	-0.141655	0.473093	-0.167106	0	0	0.165576	-0.146748	-0.00383855	1.24841	-0.463648	0	0	-0.0793362	0.235853	0.0441572	-0.35658	-0.343009	0.136867	0.57746	1.12164	0	0	0.279367	-0.483535	0.948711	0.660597	1.28827	0	0
0.32	1.08665	1.475	0.623961	0.65048	0.651436	1.01127	0.411381	0.107627	-0.133656	0.465647	-0.160594	0	0	0.187333	-0.141958	0.00349878	1.27937	-0.457704	0	0	-0.0858815	0.233503	0.0521831	-0.353965	-0.3398	0.129606	0.575477	1.1276	0	0	0.27151	-0.475932	0.955595	0.647795	1.28675	0	0
0.33	1.11736	1.47992	0.590833	0.651482	0.662467	1.01325	0.387851	0.111194	-0.126361	0.453059	-0.153017	0	0	0.2088	-0.139031	0.00886979	1.30671	-0.442564	0	0	-0.0920007	0.231816	0.0607451	-0.351732	-0.336602	0.122468	0.572996	1.13204	0	0	0.265634	-0.46767	0.967895	0.632861	1.28305	0	0
